<?xml version="1.0" standalone="no"?>
<!DOCTYPE svg PUBLIC "-//W3C//DTD SVG 20010904//EN"
 "http://www.w3.org/TR/2001/REC-SVG-20010904/DTD/svg10.dtd">
<svg version="1.0" xmlns="http://www.w3.org/2000/svg"
 width="143.000000pt" height="143.000000pt" viewBox="0 0 143.000000 143.000000"
 preserveAspectRatio="xMidYMid meet">
<metadata>
Created by potrace 1.11, written by Peter Selinger 2001-2013
</metadata>
<g transform="translate(0.000000,143.000000) scale(0.100000,-0.100000)"
fill="#000000" stroke="none">
<path d="M598 1409 c-141 -21 -267 -87 -378 -199 -90 -90 -138 -168 -181 -290
-33 -94 -33 -304 -1 -405 67 -214 239 -391 452 -467 58 -20 83 -23 225 -23
150 1 164 2 229 28 208 82 366 247 433 454 22 65 26 98 27 198 1 145 -11 201
-70 322 -91 186 -262 323 -458 368 -73 17 -212 24 -278 14z m256 -125 c157
-41 311 -164 378 -304 49 -103 60 -150 61 -260 1 -168 -54 -302 -174 -422 -73
-73 -190 -137 -287 -157 -75 -16 -198 -14 -266 4 -185 48 -350 203 -417 391
-29 79 -31 262 -4 344 63 194 227 353 416 404 73 20 217 20 293 0z"/>
<path d="M743 1243 c-19 -7 -16 -30 8 -52 22 -20 17 -46 -7 -37 -7 3 -16 1
-19 -3 -7 -13 30 -20 49 -9 22 12 20 31 -4 53 -24 22 -26 35 -5 35 8 0 15 5
15 10 0 10 -16 12 -37 3z"/>
<path d="M555 1223 c-20 -20 -13 -72 12 -90 23 -18 30 -16 58 11 27 27 24 58
-8 81 -28 19 -42 19 -62 -2z m53 -15 c17 -17 15 -58 -3 -64 -21 -8 -45 14 -45
41 0 35 24 47 48 23z"/>
<path d="M860 1223 c-22 -8 -40 -34 -40 -58 0 -26 33 -59 52 -53 8 3 5 9 -10
17 -43 23 -12 95 33 77 8 -3 17 -1 20 4 4 6 2 10 -4 10 -5 0 -15 2 -23 4 -7 3
-20 2 -28 -1z"/>
<path d="M440 1184 c0 -11 53 -104 59 -104 3 0 17 9 30 19 l25 19 -26 -5 c-22
-4 -30 1 -52 36 -25 38 -36 49 -36 35z"/>
<path d="M952 1167 c-11 -12 -26 -35 -32 -52 -11 -28 -10 -28 8 -12 36 32 59
16 42 -29 l-11 -28 22 19 c20 19 49 66 49 81 0 4 -8 0 -18 -9 -16 -15 -21 -15
-37 -3 -17 12 -17 16 -6 30 22 26 7 29 -17 3z"/>
<path d="M380 1147 c0 -4 8 -19 17 -34 l17 -26 -37 7 c-27 5 -37 4 -37 -6 1
-14 25 -45 54 -68 19 -15 19 -14 1 13 -22 34 -15 42 24 29 46 -16 47 2 2 50
-22 24 -41 39 -41 35z"/>
<path d="M1055 1088 c-50 -27 -59 -69 -20 -94 22 -14 30 -15 49 -4 13 7 29 24
35 38 10 21 9 28 -10 48 -25 27 -27 27 -54 12z m45 -43 c0 -26 -32 -50 -56
-41 -17 7 -18 38 -2 54 7 7 22 12 35 12 18 0 23 -6 23 -25z"/>
<path d="M282 1038 c-21 -21 -13 -46 21 -72 40 -31 46 -31 63 -8 20 25 17 38
-4 19 -22 -20 -32 -13 -32 22 -1 24 -2 24 -14 9 -17 -22 -27 -12 -20 18 7 27
4 30 -14 12z"/>
<path d="M563 999 c-57 -26 -68 -37 -64 -61 0 -4 -16 -18 -37 -32 -46 -29 -63
-48 -65 -75 -1 -12 -5 -21 -9 -21 -4 0 -8 -4 -8 -9 0 -5 -16 -26 -36 -47 -29
-32 -34 -44 -30 -69 3 -16 17 -40 30 -51 23 -21 24 -22 5 -38 -26 -22 -24 -43
9 -62 15 -9 40 -26 56 -36 27 -19 30 -20 82 -3 30 9 62 28 73 41 10 13 28 24
40 24 51 0 5 -47 -85 -87 -35 -15 -64 -33 -64 -40 0 -21 48 -27 74 -9 21 13
26 13 36 1 10 -12 10 -15 -1 -16 -41 -4 69 -14 148 -14 83 0 94 3 108 21 11
16 30 23 76 28 33 4 59 9 57 11 -2 2 -30 7 -63 10 -148 15 -198 60 -144 129
22 28 39 34 39 13 0 -8 14 -33 30 -55 27 -37 35 -42 71 -42 22 0 50 5 62 12
27 14 67 55 67 70 0 5 11 23 25 39 19 23 22 35 16 52 -7 17 -4 29 11 47 19 23
19 24 -6 47 -15 13 -26 32 -27 41 -1 26 -33 76 -55 87 -11 6 -36 27 -54 49
-34 38 -35 38 -91 32 -40 -4 -68 -1 -93 9 -20 9 -39 16 -43 16 -5 1 -18 5 -31
10 -33 13 -40 11 -109 -22z"/>
<path d="M1105 966 c-29 -29 -31 -48 -9 -70 35 -35 112 2 98 47 -8 28 -14 33
-41 41 -17 5 -29 1 -48 -18z m69 -20 c9 -13 7 -20 -8 -32 -46 -34 -90 2 -46
38 26 21 39 20 54 -6z"/>
<path d="M229 922 c5 -10 18 -25 27 -33 16 -13 14 -14 -20 -19 -20 -3 -37 -9
-37 -15 -1 -5 22 -20 50 -32 55 -24 69 -19 24 9 l-28 17 33 1 c38 0 39 6 10
38 l-23 25 26 -6 c45 -11 42 6 -3 20 -60 18 -71 17 -59 -5z"/>
<path d="M1153 845 c-33 -14 -40 -29 -24 -53 6 -10 10 -7 15 12 5 19 15 27 41
32 19 3 38 10 41 15 8 14 -37 10 -73 -6z"/>
<path d="M526 311 c-4 -5 -1 -11 4 -13 7 -2 7 -14 -1 -36 -6 -18 -9 -36 -5
-39 7 -7 36 59 36 82 0 16 -25 21 -34 6z"/>
<path d="M826 304 c-22 -22 -20 -33 8 -44 31 -12 41 -29 22 -36 -9 -3 -16 -10
-16 -15 0 -19 49 13 50 33 0 15 -31 37 -45 32 -8 -4 -15 -1 -15 5 0 7 7 14 15
17 16 7 21 24 6 24 -5 0 -17 -7 -25 -16z"/>
<path d="M616 278 c-15 -20 -14 -24 6 -45 18 -20 19 -23 5 -23 -9 0 -17 -5
-17 -11 0 -11 38 -3 54 12 14 13 11 70 -5 80 -21 13 -26 11 -43 -13z m44 -13
c0 -8 -7 -15 -15 -15 -8 0 -15 7 -15 15 0 8 7 15 15 15 8 0 15 -7 15 -15z"/>
<path d="M737 248 c6 -55 11 -70 20 -65 14 9 2 107 -12 107 -10 0 -12 -12 -8
-42z"/>
</g>
</svg>
